<?xml version="1.0" standalone="no"?>
<!DOCTYPE svg PUBLIC "-//W3C//DTD SVG 20010904//EN"
 "http://www.w3.org/TR/2001/REC-SVG-20010904/DTD/svg10.dtd">
<svg version="1.0" xmlns="http://www.w3.org/2000/svg"
 width="315.000000pt" height="315.000000pt" viewBox="0 0 315.000000 315.000000"
 preserveAspectRatio="xMidYMid meet">
<metadata>
Created by potrace 1.11, written by Peter Selinger 2001-2013
</metadata>
<g transform="translate(0.000000,315.000000) scale(0.100000,-0.100000)"
fill="#000000" stroke="none">
<path d="M2776 2859 c-11 -7 -29 -22 -40 -34 -12 -12 -70 -67 -131 -121 -60
-54 -112 -101 -115 -104 -22 -24 -131 -108 -205 -157 -49 -34 -119 -86 -154
-117 -77 -67 -146 -109 -266 -161 -107 -46 -148 -81 -147 -123 0 -16 17 -60
37 -98 43 -81 44 -125 2 -197 -63 -106 -220 -110 -323 -8 -85 84 -84 173 3
279 61 74 41 134 -56 168 -170 59 -467 237 -826 495 -186 133 -238 164 -282
168 -61 5 -108 -81 -70 -130 7 -8 50 -35 97 -60 206 -106 742 -467 852 -573
28 -27 37 -55 18 -57 -31 -4 -51 -2 -105 9 -33 6 -82 14 -110 18 -27 3 -115
26 -195 51 -216 68 -270 83 -320 90 -25 3 -85 16 -135 30 -192 52 -231 56
-277 32 -21 -12 -32 -50 -24 -84 7 -26 59 -55 101 -55 25 0 255 -51 620 -139
326 -78 475 -131 475 -169 -1 -22 -280 -214 -455 -313 -71 -40 -152 -88 -179
-106 -27 -18 -113 -70 -191 -114 -192 -108 -215 -133 -183 -203 21 -49 81 -45
151 8 161 122 518 356 545 356 6 0 26 13 44 29 32 27 70 51 83 51 3 0 -1 -13
-9 -28 -18 -36 -67 -74 -167 -132 -72 -41 -183 -124 -269 -200 -19 -17 -71
-58 -115 -90 -123 -91 -125 -93 -134 -126 -18 -64 36 -124 99 -109 14 4 76 58
138 120 84 84 163 149 300 246 107 76 217 165 261 209 87 87 195 150 262 153
63 3 80 -26 83 -139 3 -109 -6 -207 -35 -369 -6 -33 -12 -112 -13 -175 -3
-115 -33 -345 -62 -472 -25 -107 -6 -148 66 -148 30 0 79 38 81 64 0 6 2 72 4
146 1 74 5 153 8 175 4 22 9 65 12 95 3 30 13 82 21 115 9 33 18 110 20 170 3
61 12 133 20 160 8 28 16 82 18 120 5 98 15 140 37 164 28 29 55 13 70 -42 6
-23 15 -46 19 -52 4 -5 35 -64 69 -130 76 -151 139 -263 162 -293 9 -12 31
-56 48 -97 17 -41 40 -89 51 -107 22 -39 46 -107 56 -163 10 -56 38 -108 75
-140 27 -22 39 -26 68 -20 20 3 46 17 59 31 27 31 22 59 -24 130 -43 65 -156
302 -179 374 -18 57 -65 156 -140 295 -24 44 -57 121 -75 170 -17 50 -46 115
-65 147 -41 66 -42 75 -12 89 17 8 63 0 209 -36 238 -58 325 -87 415 -136 78
-43 114 -56 178 -65 60 -9 148 -40 234 -84 158 -80 239 -70 265 34 9 37 -13
71 -56 85 -18 6 -78 17 -133 26 -97 15 -179 38 -200 55 -22 17 -155 68 -257
98 -185 55 -537 217 -559 259 -21 39 -1 73 73 123 36 25 103 78 149 117 200
168 426 343 577 444 89 61 168 120 176 132 7 12 16 37 20 55 4 26 0 38 -22 62
-30 33 -86 47 -116 29z"/>
</g>
</svg>
